:FULLY-SPECIFIED
:FORCE-ALL-JOINTS-BE-3DOF
:DEGREES
1733
root -5.14294 15.6924 27.3529 907.012 -4.20154 189.065
lfemur -45.9417 15.7378 -16.9572
ltibia 59.0014 -0 0
lfoot -17.4503 17.8022 0
ltoes -35.9515 0 0
rfemur -25.5552 -15.3652 16.9667
rtibia 63.8066 -0 0
rfoot -11.1972 -22.7108 -0.0826091
rtoes 11.1969 -0 0
lowerback 16.9555 2.7395 -5.86282
upperback -0.137989 2.54759 1.93819
thorax -10.0669 1.5177 4.81795
lowerneck 5.56279 -14.9754 -17.0903
upperneck -3.37451 -21.9191 25.0627
head 2.93524 -11.5483 9.41925
lclavicle -3.37934e-15 -1.27222e-14 0
lhumerus -54.2637 -39.9683 118.396
lradius 95.3904 0 0
lwrist 46.5619 0 0
lhand -2.56992 37.134 0
lfingers 7.12502 0 0
lthumb 23.1267 65.7659 0
rclavicle -3.37934e-15 -1.27222e-14 0
rhumerus 37.7857 45.0573 -31.4568
rradius 130.56 0 0
rwrist -16.0679 0 0
rhand 9.87693 -26.3431 0
rfingers 7.12502 0 0
rthumb 35.0096 -52.8969 0
1734
root -5.07133 15.6953 27.4047 906.857 -1.86935 188.913
lfemur -45.0186 15.2169 -16.2363
ltibia 58.7735 -0 0
lfoot -17.0551 17.7539 -0.00467897
ltoes -36.6026 0 0
rfemur -25.9014 -15.7349 17.2266
rtibia 63.097 -0 0
rfoot -11.4795 -22.493 -0.0836825
rtoes 11.0703 -0 0
lowerback 17.2609 2.96851 -6.27006
upperback -0.0550889 2.71517 1.68398
thorax -10.1785 1.60551 4.72027
lowerneck 5.7937 -14.8495 -17.1428
upperneck -3.50305 -21.7959 25.2421
head 2.86336 -11.5213 9.52942
lclavicle -9.54166e-15 -2.38542e-15 0
lhumerus -55.4068 -38.0051 117.818
lradius 95.9644 0 0
lwrist 46.735 0 0
lhand -2.56886 36.4315 0
lfingers 7.12502 0 0
lthumb 23.1277 65.0633 0
rclavicle -9.54166e-15 -2.38542e-15 0
rhumerus 32.9647 45.8565 -34.4425
rradius 130.916 0 0
rwrist -16.2357 0 0
rhand 10.1605 -25.6001 0
rfingers 7.12502 0 0
rthumb 35.2786 -52.0906 0
1735
root -5.0026 15.6931 27.4508 906.605 0.452724 188.693
lfemur -44.1046 14.6849 -15.5259
ltibia 58.5456 -0 0
lfoot -16.6599 17.7056 -0.00902467
ltoes -37.2536 0 0
rfemur -26.25 -16.103 17.4894
rtibia 62.3874 -0 0
rfoot -11.7619 -22.2751 -0.0836825
rtoes 10.9436 -0 0
lowerback 17.5868 3.01528 -6.77701
upperback 0.0840382 2.90707 1.43637
thorax -10.2347 1.8312 4.65699
lowerneck 5.19921 -14.9772 -17.142
upperneck -2.80662 -22.0071 24.9708
head 3.16955 -11.561 9.33131
lclavicle 0 2.70347e-14 0
lhumerus -56.2601 -35.9652 116.968
lradius 96.7141 0 0
lwrist 47.0774 0 0
lhand -3.34579 35.6058 0
lfingers 7.12502 0 0
lthumb 22.3821 64.3292 0
rclavicle 0 2.70347e-14 0
rhumerus 27.6613 46.461 -37.6197
rradius 131.116 0 0
rwrist -16.5962 0 0
rhand 11.0631 -24.9555 0
rfingers 7.12502 0 0
rthumb 36.134 -51.239 0
1736
root -4.93618 15.6849 27.4933 906.356 2.88088 188.491
lfemur -43.1996 14.142 -14.826
ltibia 58.3177 -0 0
lfoot -16.2647 17.6572 -0.0130369
ltoes -36.5709 0 0
rfemur -26.6009 -16.4696 17.7549
rtibia 61.6778 -0 0
rfoot -12.0442 -22.0573 -0.0826091
rtoes 10.8169 -0 0
lowerback 17.8359 3.25463 -7.21675
upperback 0.239642 3.10647 1.18556
thorax -10.2382 1.94052 4.56917
lowerneck 5.0822 -14.9186 -17.2223
upperneck -2.77047 -21.9667 25.1424
head 3.22302 -11.5482 9.38972
lclavicle -5.1684e-15 -7.95139e-15 0
lhumerus -57.0416 -33.7796 116.02
lradius 97.5709 0 0
lwrist 47.1465 0 0
lhand -4.13731 34.9056 0
lfingers 7.12502 0 0
lthumb 21.6221 63.7184 0
rclavicle -5.1684e-15 -7.95139e-15 0
rhumerus 21.8527 46.6831 -41.0646
rradius 131.07 0 0
rwrist -17.0968 0 0
rhand 11.7892 -24.8544 0
rfingers 7.12502 0 0
rthumb 36.8213 -50.9649 0
1737
root -4.87878 15.677 27.5277 906.081 5.38179 188.288
lfemur -42.3037 13.5886 -14.1368
ltibia 58.0898 -0 0
lfoot -15.8695 17.6088 -0.0167155
ltoes -35.8882 0 0
rfemur -26.9544 -16.8346 18.0234
rtibia 60.9682 -0 0
rfoot -12.3265 -21.8394 -0.0804624
rtoes 10.6902 -0 0
lowerback 18.0927 3.47601 -7.55515
upperback 0.395348 3.30143 0.920164
thorax -10.2384 2.04256 4.4065
lowerneck 4.78649 -14.839 -17.266
upperneck -2.7243 -21.8635 25.2447
head 3.28246 -11.492 9.41406
lclavicle -3.10104e-14 -4.77083e-15 0
lhumerus -57.669 -31.4905 114.825
lradius 98.5683 0 0
lwrist 46.737 0 0
lhand -4.74174 33.8935 0
lfingers 7.12502 0 0
lthumb 21.0415 62.7719 0
rclavicle -3.10104e-14 -4.77083e-15 0
rhumerus 15.7524 46.639 -44.488
rradius 130.925 0 0
rwrist -17.8274 0 0
rhand 13.2343 -24.549 0
rfingers 7.12502 0 0
rthumb 38.1871 -50.2971 0
1738
root -4.82456 15.677 27.5518 905.92 8.1417 188.185
lfemur -41.4168 13.0248 -13.458
ltibia 57.8619 -0 0
lfoot -15.4744 17.5604 -0.0200602
ltoes -35.2055 0 0
rfemur -27.3103 -17.198 18.2947
rtibia 60.2586 -0 0
rfoot -12.6088 -21.6216 -0.0772424
rtoes 10.5635 -0 0
lowerback 18.1473 3.7815 -7.82434
upperback 0.41161 3.62441 0.693202
thorax -10.2983 2.2033 4.21388
lowerneck 4.83236 -15.3702 -17.6264
upperneck -2.40623 -21.5909 25.391
head 3.39777 -10.8633 9.54642
lclavicle -3.33958e-14 1.27222e-14 0
lhumerus -58.6638 -29.1206 113.756
lradius 99.7357 0 0
lwrist 45.9523 0 0
lhand -5.13376 34.8898 0
lfingers 7.12502 0 0
lthumb 20.6649 63.8097 0
rclavicle -3.33958e-14 1.27222e-14 0
rhumerus 9.14248 46.2664 -48.017
rradius 130.415 0 0
rwrist -18.5313 0 0
rhand 14.8218 -24.2534 0
rfingers 7.12502 0 0
rthumb 39.6839 -49.5741 0
1739
root -4.77087 15.6656 27.5742 905.822 11.0507 188.06
lfemur -40.5387 12.451 -12.7899
ltibia 57.634 -0 0
lfoot -15.0792 17.512 -0.0230709
ltoes -34.5228 0 0
rfemur -27.6686 -17.5598 18.5688
rtibia 59.549 -0 0
rfoot -12.891 -21.4038 -0.0729493
rtoes 10.4369 -0 0
lowerback 18.1753 4.11266 -8.0569
upperback 0.404331 3.98639 0.436181
thorax -10.3702 2.38008 3.95492
lowerneck 4.56405 -15.2804 -17.7385
upperneck -2.26564 -21.4678 25.4714
head 3.48055 -10.7797 9.57948
lclavicle -4.17448e-14 -1.43125e-14 0
lhumerus -59.708 -27.016 112.679
lradius 100.908 0 0
lwrist 44.9186 0 0
lhand -5.685 35.0895 0
lfingers 7.12502 0 0
lthumb 20.1351 64.0661 0
rclavicle -4.17448e-14 -1.43125e-14 0
rhumerus 2.58294 45.3171 -51.3284
rradius 129.277 0 0
rwrist -19.096 0 0
rhand 16.0825 -24.6094 0
rfingers 7.12502 0 0
rthumb 40.8696 -49.5671 0
1740
root -4.71736 15.6488 27.5902 905.622 14.2735 188.027
lfemur -39.6695 11.8672 -12.1322
ltibia 57.4061 -0 0
lfoot -14.6839 17.4635 -0.0257474
ltoes -33.8401 0 0
rfemur -28.0296 -17.9199 18.846
rtibia 58.8394 -0 0
rfoot -13.1733 -21.186 -0.0675832
rtoes 10.3102 -0 0
lowerback 18.0127 4.49024 -8.15453
upperback 0.580963 4.47492 0.170634
thorax -10.1318 2.60149 3.59029
lowerneck 4.45802 -15.5114 -17.3432
upperneck -2.53166 -21.7114 24.9731
head 3.36005 -10.9082 9.32313
lclavicle 3.18055e-15 -6.36111e-15 0
lhumerus -60.6616 -25.2512 111.587
lradius 101.635 0 0
lwrist 43.7176 0 0
lhand -6.15019 30.2677 0
lfingers 7.12502 0 0
lthumb 19.688 59.2907 0
rclavicle 3.18055e-15 -6.36111e-15 0
rhumerus -3.3633 43.8355 -54.0559
rradius 127.513 0 0
rwrist -19.1721 0 0
rhand 16.5283 -25.4624 0
rfingers 7.12502 0 0
rthumb 41.2882 -50.2865 0
1741
root -4.66368 15.631 27.6056 905.673 17.408 187.912
lfemur -38.8089 11.2739 -11.485
ltibia 57.1782 -0 0
lfoot -14.2887 17.415 -0.0280897
ltoes -33.1574 0 0
rfemur -28.3931 -18.2783 19.126
rtibia 58.1298 -0 0
rfoot -13.4556 -20.9683 -0.0611443
rtoes 10.1835 -0 0
lowerback 18.0819 4.83921 -8.26375
upperback 0.326099 4.8554 -0.0877993
thorax -10.4948 2.78741 3.24101
lowerneck 4.32325 -15.3651 -17.5387
upperneck -2.25635 -21.5489 24.7357
head 3.41685 -10.8176 9.28242
lclavicle -3.4191e-14 7.31528e-14 0
lhumerus -62.15 -23.3662 110.692
lradius 102.49 0 0
lwrist 42.8446 0 0
lhand -6.38551 28.0723 0
lfingers 7.12502 0 0
lthumb 19.4617 57.1183 0
rclavicle -3.4191e-14 7.31528e-14 0
rhumerus -9.37516 42.1485 -56.5458
rradius 124.983 0 0
rwrist -18.6219 0 0
rhand 17.07 -27.2261 0
rfingers 7.12502 0 0
rthumb 41.7964 -51.884 0
1742
root -4.61093 15.6249 27.6172 905.591 20.8466 187.802
lfemur -37.957 10.6711 -10.8483
ltibia 56.9502 -0 0
lfoot -13.8935 17.3665 -0.0300975
ltoes -32.4747 0 0
rfemur -28.7592 -18.6351 19.4091
rtibia 57.4202 -0 0
rfoot -13.7378 -20.7506 -0.0536329
rtoes 10.0569 -0 0
lowerback 17.7297 5.19033 -8.27402
upperback 0.424085 5.33448 -0.383438
thorax -10.2185 2.99903 2.8114
lowerneck 4.04496 -15.2329 -17.4926
upperneck -2.3721 -21.3098 24.6195
head 3.35892 -10.6873 9.25522
lclavicle 3.22031e-14 4.13472e-14 0
lhumerus -63.152 -21.8139 109.52
lradius 103.156 0 0
lwrist 42.3516 0 0
lhand -5.2628 27.9484 0
lfingers 7.12502 0 0
lthumb 20.5409 56.8817 0
rclavicle 3.22031e-14 4.13472e-14 0
rhumerus -14.0116 39.8553 -58.0098
rradius 121.431 0 0
rwrist -16.4895 0 0
rhand 14.1721 -28.57 0
rfingers 7.12502 0 0
rthumb 39.0718 -54.0695 0
1743
root -4.5566 15.6127 27.6274 905.574 24.2173 187.575
lfemur -37.1136 10.0591 -10.222
ltibia 56.7223 -0 0
lfoot -13.4983 17.318 -0.0317709
ltoes -31.792 0 0
rfemur -29.1279 -18.9901 19.6951
rtibia 56.7106 -0 0
rfoot -14.02 -20.5329 -0.0450493
rtoes 9.93023 0 0
lowerback 17.6652 5.51705 -8.36405
upperback 0.207028 5.70725 -0.660192
thorax -10.4519 3.17635 2.4424
lowerneck 3.82795 -15.0232 -17.5394
upperneck -2.14066 -21.0226 24.2423
head 3.35611 -10.5328 9.16383
lclavicle 3.53837e-14 -7.95139e-15 0
lhumerus -64.6268 -20.1443 108.557
lradius 103.822 0 0
lwrist 42.3714 0 0
lhand -3.9437 27.0445 0
lfingers 7.12502 0 0
lthumb 21.808 55.8358 0
rclavicle 3.53837e-14 -7.95139e-15 0
rhumerus -18.0411 37.9059 -58.9611
rradius 117.023 0 0
rwrist -13.248 0 0
rhand 7.65356 -29.9228 0
rfingers 7.12502 0 0
rthumb 32.8976 -56.9446 0
1744
root -4.49867 15.5905 27.6299 905.547 27.6319 187.286
lfemur -36.2786 9.43818 -9.60598
ltibia 56.4944 -0 0
lfoot -13.1031 17.2695 -0.0331097
ltoes -31.1093 0 0
rfemur -29.4994 -19.3434 19.9842
rtibia 56.001 -0 0
rfoot -14.3021 -20.3153 -0.0353939
rtoes 9.22491 -0 0
lowerback 17.3752 5.79145 -8.38276
upperback 0.112317 6.05913 -0.973203
thorax -10.4026 3.33425 2.02681
lowerneck 3.34072 -14.8018 -17.4241
upperneck -1.83199 -20.6817 23.7551
head 3.37923 -10.3327 8.99767
lclavicle 1.18078e-13 3.02153e-14 0
lhumerus -65.8791 -18.7344 107.526
lradius 104.386 0 0
lwrist 42.7932 0 0
lhand -2.81189 26.8956 0
lfingers 7.12502 0 0
lthumb 22.8945 55.5564 0
rclavicle 1.18078e-13 3.02153e-14 0
rhumerus -20.4684 35.5468 -58.9166
rradius 111.426 0 0
rwrist -7.90823 0 0
rhand 0.870876 -30.9858 0
rfingers 7.12502 0 0
rthumb 26.4243 -59.164 0
1745
root -4.43871 15.5713 27.6296 905.5 31.0465 187.141
lfemur -35.4518 8.80851 -9.00032
ltibia 56.2665 -0 0
lfoot -12.7079 17.221 -0.0341138
ltoes -30.4266 0 0
rfemur -29.8735 -19.6948 20.2764
rtibia 55.2914 0 0
rfoot -14.5842 -20.0977 -0.0246669
rtoes 8.51959 -0 0
lowerback 17.2533 5.99699 -8.36422
upperback -0.052004 6.31277 -1.15805
thorax -10.5233 3.44936 1.74159
lowerneck 2.97107 -14.4536 -17.3472
upperneck -1.51498 -20.1772 23.26
head 3.35764 -10.062 8.86959
lclavicle -5.56597e-14 3.18055e-15 0
lhumerus -67.235 -17.2527 106.631
lradius 104.898 0 0
lwrist 43.383 0 0
lhand -3.43472 27.1721 0
lfingers 7.12502 0 0
lthumb 22.2967 55.9057 0
rclavicle -5.56597e-14 3.18055e-15 0
rhumerus -21.6588 33.3368 -58.1642
rradius 104.664 0 0
rwrist 0.23257 0 0
rhand -5.99069 -31.5274 0
rfingers 7.12502 0 0
rthumb 19.8413 -60.5346 0
1746
root -4.37677 15.5729 27.6305 905.446 34.5398 187.033
lfemur -34.6332 8.17032 -8.40489
ltibia 56.0386 0 0
lfoot -12.3127 17.1725 -0.0347833
ltoes -29.7439 0 0
rfemur -30.2503 -20.0445 20.5716
rtibia 55.3762 -0 0
rfoot -14.8663 -19.8802 -0.0128687
rtoes 7.81427 -0 0
lowerback 16.9672 6.09797 -8.34002
upperback -0.101271 6.458 -1.33681
thorax -10.408 3.5098 1.51595
lowerneck 2.48998 -14.0292 -17.0496
upperneck -1.25438 -19.5291 22.7601
head 3.29035 -9.71404 8.72038
lclavicle -4.05521e-14 5.88403e-14 0
lhumerus -68.2427 -15.8602 105.591
lradius 105.48 0 0
lwrist 43.3376 0 0
lhand -5.06129 34.4035 0
lfingers 7.12502 0 0
lthumb 20.7345 63.3158 0
rclavicle -4.05521e-14 5.88403e-14 0
rhumerus -20.94 30.9522 -56.8441
rradius 96.0822 0 0
rwrist 11.9363 0 0
rhand -12.3943 -30.3911 0
rfingers 7.12502 0 0
rthumb 13.677 -59.9217 0
